<?xml version="1.0"?>
<svg xmlns="http://www.w3.org/2000/svg" viewBox="0 0 64 64" width="512" height="512"><g id="Outline"><g><path d="M13.36,43h0a20.83,20.83,0,0,0,20.75,3.77,1,1,0,0,0,.64-.72,1,1,0,0,0-.27-.93l-6.9-6.89A1,1,0,0,0,26.45,38,18.78,18.78,0,0,1,18,40a19,19,0,0,1-2.87-.25,18.82,18.82,0,0,1,4.74-10.46l3.79,3.78a1,1,0,0,0,.7.29,1,1,0,0,0,.71-.29,6.94,6.94,0,0,0,.4-9.41,1,1,0,1,0-1.53,1.28,5,5,0,0,1,.35,5.94l-3-3c.32-.29.64-.56,1-.83A1,1,0,1,0,21,25.48a22,22,0,0,0-1.83,1.64l-.05,0s0,0,0,.06a20.84,20.84,0,0,0-6,12.72A19,19,0,0,1,24.53,8.16L25,8.11a14.93,14.93,0,0,0,5.32,11.34,1,1,0,0,0,.65.24,1,1,0,0,0,.76-.36,1,1,0,0,0-.12-1.41A12.94,12.94,0,0,1,27,8a19,19,0,0,1,16.13,9l-6.56,3.45A5.43,5.43,0,0,1,34,21h0a20.92,20.92,0,0,0-5.79.81,1,1,0,0,0,.55,1.92A19.29,19.29,0,0,1,34,23h0a7.4,7.4,0,0,0,3.47-.82L45,18.24a1,1,0,0,0,.41-1.36A20.92,20.92,0,0,0,26.12,6h0c-.52,0-1.05.06-1.58.12L22.24,2.62a1,1,0,0,0-1-.45A21,21,0,0,0,8.83,37.49,21,21,0,0,0,13.36,43ZM26.69,40.1l5.23,5.24a19,19,0,0,1-16.83-3.56A20.27,20.27,0,0,0,26.69,40.1ZM5.15,20.57A19.13,19.13,0,0,1,20.91,4.24l1.47,2.27A21.16,21.16,0,0,0,6.17,24.32a20.72,20.72,0,0,0,0,5.16A19,19,0,0,1,5.15,20.57Z"/><circle cx="33" cy="12" r="1"/><path d="M51,18.86V34a6,6,0,0,1-12,0V31l2.4,1.8a1,1,0,1,0,1.2-1.6l-4-3a1,1,0,0,0-1.05-.09A1,1,0,0,0,37,29v5a8,8,0,0,0,16,0V18.86a4,4,0,0,0,0-7.72V3a1,1,0,0,0-2,0v8.14a4,4,0,0,0,0,7.72ZM52,13a2,2,0,1,1-2,2A2,2,0,0,1,52,13Z"/><path d="M20.23,13.32a1,1,0,0,0-1.15.81,5,5,0,0,0,4.05,5.79l.18,0a1,1,0,0,0,.17-2A3,3,0,0,1,21,14.48,1,1,0,0,0,20.23,13.32Z"/><path d="M18.5,22a1,1,0,0,0-1-1A2.5,2.5,0,0,1,15,18.5a1,1,0,0,0-2,0A4.51,4.51,0,0,0,17.5,23,1,1,0,0,0,18.5,22Z"/><path d="M12,25.5a1,1,0,0,0-2,0A4.51,4.51,0,0,0,14.5,30a1,1,0,0,0,0-2A2.5,2.5,0,0,1,12,25.5Z"/><path d="M5.5,53.54a4.55,4.55,0,0,0,3.21-1.33,2.53,2.53,0,0,1,3.58,0,4.54,4.54,0,0,0,6.42,0,2.53,2.53,0,0,1,3.58,0,4.54,4.54,0,0,0,6.42,0,2.53,2.53,0,0,1,3.58,0,4.54,4.54,0,0,0,6.42,0,2.53,2.53,0,0,1,3.58,0,4.54,4.54,0,0,0,6.42,0,2.53,2.53,0,0,1,3.58,0,4.54,4.54,0,0,0,6.42,0,2.5,2.5,0,0,1,2.15-.71,1,1,0,1,0,.28-2,4.52,4.52,0,0,0-3.85,1.27,2.53,2.53,0,0,1-3.58,0,4.54,4.54,0,0,0-6.42,0,2.53,2.53,0,0,1-3.58,0,4.54,4.54,0,0,0-6.42,0,2.53,2.53,0,0,1-3.58,0,4.54,4.54,0,0,0-6.42,0,2.53,2.53,0,0,1-3.58,0,4.54,4.54,0,0,0-6.42,0,2.53,2.53,0,0,1-3.58,0,4.54,4.54,0,0,0-6.42,0,2.53,2.53,0,0,1-3.58,0,1,1,0,0,0-1.42,1.42A4.55,4.55,0,0,0,5.5,53.54Z"/><path d="M61.71,55.79a4.54,4.54,0,0,0-6.42,0,2.53,2.53,0,0,1-3.58,0,4.54,4.54,0,0,0-6.42,0,2.53,2.53,0,0,1-3.58,0,4.54,4.54,0,0,0-6.42,0,2.53,2.53,0,0,1-3.58,0,4.54,4.54,0,0,0-6.42,0,2.53,2.53,0,0,1-3.58,0,4.54,4.54,0,0,0-6.42,0,2.53,2.53,0,0,1-3.58,0,4.54,4.54,0,0,0-6.42,0,2.53,2.53,0,0,1-2.15.71,1,1,0,0,0-.28,2,4.48,4.48,0,0,0,3.85-1.27,2.53,2.53,0,0,1,3.58,0,4.54,4.54,0,0,0,6.42,0,2.53,2.53,0,0,1,3.58,0,4.54,4.54,0,0,0,6.42,0,2.53,2.53,0,0,1,3.58,0,4.54,4.54,0,0,0,6.42,0,2.53,2.53,0,0,1,3.58,0,4.54,4.54,0,0,0,6.42,0,2.53,2.53,0,0,1,3.58,0,4.54,4.54,0,0,0,6.42,0,2.53,2.53,0,0,1,3.58,0,1,1,0,0,0,1.42-1.42Z"/></g></g></svg>
