<svg xmlns="http://www.w3.org/2000/svg" xmlns:xlink="http://www.w3.org/1999/xlink" version="1.1" x="0px" y="0px" viewBox="0 0 100 125" style="enable-background:new 0 0 100 100;" xml:space="preserve"><path d="M23.2402344,50.7783203c-2.5263672,0-4.581543,2.0551758-4.581543,4.581543s2.0556641,4.581543,4.5820312,4.581543  s4.581543-2.0551758,4.581543-4.581543S25.7666016,50.7783203,23.2402344,50.7783203z M23.2407227,57.9414062h-0.0004883  c-1.4233398,0-2.581543-1.1582031-2.581543-2.581543s1.1582031-2.581543,2.5820312-2.581543  c1.4233398,0,2.581543,1.1582031,2.581543,2.581543S24.6640625,57.9414062,23.2407227,57.9414062z"/><path d="M56.2119141,54.3598633H33.3466797c-0.5522461,0-1,0.4477539-1,1s0.4477539,1,1,1h22.8652344c0.5522461,0,1-0.4477539,1-1  S56.7641602,54.3598633,56.2119141,54.3598633z"/><path d="M23.2402344,62.6933594c-2.5263672,0-4.581543,2.0551758-4.581543,4.581543s2.0556641,4.581543,4.5820312,4.581543  s4.581543-2.0551758,4.581543-4.581543S25.7666016,62.6933594,23.2402344,62.6933594z M23.2407227,69.8564453h-0.0004883  c-1.4233398,0-2.581543-1.1582031-2.581543-2.581543s1.1582031-2.581543,2.5820312-2.581543  c1.4233398,0,2.581543,1.1582031,2.581543,2.581543S24.6640625,69.8564453,23.2407227,69.8564453z"/><path d="M56.2119141,66.2749023H33.3466797c-0.5522461,0-1,0.4477539-1,1s0.4477539,1,1,1h22.8652344c0.5522461,0,1-0.4477539,1-1  S56.7641602,66.2749023,56.2119141,66.2749023z"/><path d="M23.2402344,74.6083984c-2.5263672,0-4.581543,2.0551758-4.581543,4.581543s2.0556641,4.581543,4.5820312,4.581543  s4.581543-2.0551758,4.581543-4.581543S25.7666016,74.6083984,23.2402344,74.6083984z M23.2407227,81.7714844h-0.0004883  c-1.4233398,0-2.581543-1.1582031-2.581543-2.581543s1.1582031-2.581543,2.5820312-2.581543  c1.4233398,0,2.581543,1.1582031,2.581543,2.581543S24.6640625,81.7714844,23.2407227,81.7714844z"/><path d="M56.2119141,78.1899414H33.3466797c-0.5522461,0-1,0.4477539-1,1s0.4477539,1,1,1h22.8652344c0.5522461,0,1-0.4477539,1-1  S56.7641602,78.1899414,56.2119141,78.1899414z"/><path d="M82.4663086,10.2211914c-0.206543-0.1665039-0.4731445-0.2470703-0.734375-0.215332l-52.0893555,5.6254883  c-0.5488281,0.059082-0.9462891,0.5522461-0.8867188,1.1015625l0.3935547,3.6445312H11c-0.5522461,0-1,0.4477539-1,1V89  c0,0.5522461,0.4477539,1,1,1h54.5322266c0.5522461,0,1-0.4477539,1-1v-8.2608643l22.5751953-2.4378662  c0.2636719-0.0283203,0.5053711-0.1606445,0.6713867-0.3671875c0.1665039-0.206543,0.2436523-0.4707031,0.215332-0.734375  l-7.1606445-66.3071289C82.8051758,10.6289062,82.6728516,10.387207,82.4663086,10.2211914z M64.5322266,88H12V22.3774414  h52.5322266V88z M66.5322266,78.7276611V21.3774414c0-0.5522461-0.4477539-1-1-1H31.1608887l-0.3093262-2.8652344  l50.1010742-5.4106445l6.9458008,64.3188477L66.5322266,78.7276611z"/><path d="M18.3266602,46.8745117c0.1269531,0.4223633,0.5161133,0.7119141,0.9575195,0.7119141  c6.215332,0,8.8701172-4.1967773,9.7402344-7.7758789c5.6801758,7.3540039,14.5478516,7.7607422,14.9863281,7.7758789  c0.0224609,0,0.0449219,0,0.0673828,0c11.2822266,0,14.1098633-10.1943359,14.137207-10.2973633  c0.0493164-0.1875,0.043457-0.3857422-0.0170898-0.5698242C54.519043,25.5913086,44.8378906,26.3823242,43.9365234,26.4824219  c-0.7763672,0.0351562-9.3837891,0.5913086-14.9316406,7.7988281c-0.8930664-3.5825195-3.5620117-7.8012695-9.7207031-7.8012695  c-0.4414062,0-0.8305664,0.2895508-0.9575195,0.7119141c-0.0874023,0.2895508-1.934082,6.581543,0.7543945,9.8413086  C16.3925781,40.2929688,18.2392578,46.5849609,18.3266602,46.8745117z M44.0512695,28.4794922  c0.0356445-0.0014648,0.0722656-0.0048828,0.1074219-0.0097656c0.0869141-0.0117188,8.6479492-1.140625,12.0400391,8.581543  c-0.4960938,1.5200195-3.2636719,8.5361328-12.0883789,8.5361328c-0.0195312,0-0.0395508,0-0.059082-0.0004883  c-0.0966797-0.003418-9.5458984-0.4619141-14.5151367-8.5537109C34.5053711,28.9418945,43.9545898,28.4829102,44.0512695,28.4794922  z M21.1171875,36.2294922c-2.0214844-1.4970703-1.5688477-5.5683594-1.0693359-7.7226562  c7.0610352,0.5117188,7.3178711,8.1054688,7.3266602,8.5317383c-0.0039062,0.4453125-0.1831055,8.0180664-7.3276367,8.5214844  c-0.5024414-2.1518555-0.9580078-6.2207031,1.0703125-7.7231445c0.2548828-0.1889648,0.4047852-0.4868164,0.4047852-0.8037109  S21.371582,36.4179688,21.1171875,36.2294922z"/><path d="M44.640625,38.0043945c0.5522461,0,1-0.4477539,1-1c0-0.949707,0.753418-1.7226562,1.6796875-1.7226562  S49,36.0546875,49,37.0043945c0,0.5522461,0.4477539,1,1,1s1-0.4477539,1-1c0-2.0527344-1.6508789-3.7226562-3.6796875-3.7226562  s-3.6796875,1.6699219-3.6796875,3.7226562C43.640625,37.5566406,44.0883789,38.0043945,44.640625,38.0043945z"/></svg>