<svg xmlns="http://www.w3.org/2000/svg" xmlns:xlink="http://www.w3.org/1999/xlink" version="1.1" x="0px" y="0px" viewBox="0 0 63.064 78.83" style="enable-background:new 0 0 63.064 63.064;" xml:space="preserve"><g><path d="M53.032,52.403c0-1.706-1.48-3.884-3.883-5.827v-6.364c0-2.164-0.843-4.2-2.375-5.733   c-1.533-1.531-3.568-2.374-5.733-2.374H22.023c-2.165,0-4.2,0.843-5.733,2.374c-1.531,1.532-2.375,3.568-2.375,5.733v4.192   c-1.148-0.461-2.28-0.677-3.403-0.629c-0.19,0.008-0.36,0.123-0.437,0.296c-0.077,0.174-0.049,0.377,0.073,0.523   c3.771,4.524,3.77,11.092-0.001,15.616c-0.12,0.144-0.149,0.342-0.077,0.514c0.073,0.172,0.235,0.29,0.421,0.305   c1.158,0.093,2.326-0.137,3.54-0.661v1.13c0,0.399,0.156,0.775,0.439,1.061C14.755,62.844,15.132,63,15.532,63h5.5   c0.402,0,0.779-0.156,1.061-0.439c0.283-0.283,0.439-0.66,0.439-1.061v-2.015c0-0.064-0.015-0.124-0.018-0.187   c0.002-0.016,0.009-0.03,0.009-0.047v-1.749c2.764,2.434,7.413,5.562,13.074,5.562c1.775,0,3.563-0.243,5.324-0.703   c0.049,0.069,0.101,0.137,0.162,0.198c0.278,0.28,0.666,0.44,1.062,0.44h5.5c0.396,0,0.783-0.161,1.061-0.439   c0.283-0.283,0.439-0.66,0.439-1.061v-2.015c0-0.376-0.074-0.737-0.187-1.083C51.473,56.41,53.032,54.135,53.032,52.403z    M41.542,33.13c1.709,0.118,3.302,0.834,4.526,2.057c1.342,1.344,2.082,3.128,2.082,5.026v5.611   c-1.646-1.166-3.618-2.204-5.805-2.941c-0.077-0.048-0.16-0.078-0.247-0.08c-0.11-0.036-0.225-0.064-0.336-0.098   c-0.067-0.113-0.139-0.229-0.218-0.35V33.13z M40.542,33.105v7.969c-1.256-1.366-3.274-2.814-6.451-3.581   c0.774-1.41,1.466-2.878,2.051-4.387H40.542z M31.486,38.057c4.894,0.51,7.474,2.563,8.791,4.245c-1.503-0.35-3.072-0.56-4.68-0.56   c-1.294,0-2.529,0.174-3.708,0.455C31.942,40.664,31.667,38.973,31.486,38.057z M35.057,33.105   c-0.574,1.435-1.232,2.835-1.981,4.173c-0.682-0.123-1.404-0.221-2.185-0.277c-0.163-0.01-0.314,0.054-0.417,0.175   s-0.142,0.285-0.105,0.44c0.002,0.008,0.056,0.237,0.128,0.602c-0.967-1.598-1.798-3.313-2.503-5.114H35.057z M22.523,33.105h4.393   c1.023,2.701,2.338,5.211,3.922,7.464c0.056,0.634,0.08,1.294,0.037,1.904c-3.516,1.068-6.404,3.116-8.352,4.831V33.105z    M14.916,40.212c0-1.898,0.739-3.683,2.082-5.026c1.224-1.223,2.817-1.938,4.526-2.057v12.289h-5.682   c-0.31-0.198-0.618-0.38-0.925-0.541V40.212z M21.523,46.418v1.811c-0.486,0.473-0.889,0.895-1.177,1.215   c-1.06-1.212-2.097-2.204-3.12-3.025H21.523z M21.532,61.5c0,0.133-0.052,0.259-0.147,0.354C21.292,61.948,21.166,62,21.032,62   h-5.5c-0.133,0-0.259-0.052-0.353-0.146c-0.095-0.096-0.147-0.222-0.147-0.354v-2.015c0-0.664,0.259-1.288,0.729-1.758   C16.23,57.258,16.854,57,17.517,57h1.531c0.663,0,1.287,0.258,1.756,0.728c0.469,0.469,0.728,1.093,0.728,1.758V61.5z    M19.685,56.062c0.216-0.228,0.434-0.462,0.654-0.707c0.289,0.321,0.693,0.746,1.184,1.222v0.457   c-0.004-0.004-0.007-0.01-0.012-0.014C21.006,56.515,20.373,56.189,19.685,56.062z M40.645,61.411   c-1.671,0.434-3.367,0.654-5.048,0.654c-6.12,0-11.836-4.195-14.872-7.788c-0.094-0.111-0.231-0.176-0.377-0.177   c-0.135-0.023-0.284,0.061-0.38,0.17c-0.556,0.633-1.098,1.21-1.62,1.73h-0.83c-0.931,0-1.806,0.362-2.463,1.021   c-0.606,0.606-0.948,1.4-1,2.247c-0.865,0.425-1.693,0.682-2.501,0.758c3.225-4.549,3.232-10.651,0.025-15.209   c2.627,0.317,5.442,2.234,8.384,5.713c0.19,0.225,0.574,0.225,0.764,0c2.325-2.751,6.225-5.849,10.672-7.152   c0.052-0.006,0.1-0.019,0.146-0.04c1.314-0.372,2.673-0.595,4.054-0.595c1.965,0,3.847,0.318,5.602,0.829   c-1.706,2.139-2.715,5.362-2.715,8.832c0,3.074,0.769,5.93,2.161,8.073V61.411z M48.145,61.5c0,0.133-0.052,0.259-0.147,0.354   C47.906,61.947,47.777,62,47.645,62h-5.5c-0.132,0-0.261-0.053-0.354-0.146c-0.094-0.095-0.146-0.22-0.146-0.354v-2.015   c0-0.665,0.258-1.289,0.728-1.758C42.842,57.258,43.466,57,44.13,57h1.53c0.664,0,1.288,0.258,1.757,0.728   c0.11,0.11,0.207,0.231,0.293,0.357c0.036,0.053,0.064,0.112,0.096,0.168c0.214,0.372,0.338,0.791,0.338,1.233V61.5z    M48.515,57.486c-0.116-0.166-0.246-0.321-0.391-0.465C47.466,56.362,46.591,56,45.66,56h-1.53c-0.931,0-1.806,0.362-2.465,1.021   c-0.448,0.448-0.746,1.001-0.899,1.599c-0.821-1.784-1.282-3.964-1.282-6.216c0-3.422,1.028-6.564,2.749-8.509   c5.74,1.991,9.799,6.1,9.799,8.509C52.032,53.78,50.667,55.738,48.515,57.486z"/><path d="M22.404,19.209v0.869c0,2.438,0.949,4.731,2.673,6.455c1.724,1.724,4.017,2.673,6.456,2.673   c2.438,0,4.731-0.949,6.455-2.673c1.724-1.724,2.673-4.016,2.673-6.455v-0.869c3.362-1.167,5.491-2.975,5.491-5.045   c0-1.928-1.862-3.709-5.122-4.914l-0.87-6.083C39.904,1.361,38.334,0,36.51,0h-9.955c-1.824,0-3.394,1.361-3.652,3.167L22.035,9.25   c-3.26,1.204-5.122,2.985-5.122,4.914C16.913,16.234,19.042,18.043,22.404,19.209z M39.661,20.078c0,2.171-0.845,4.212-2.38,5.748   s-3.577,2.38-5.749,2.38c-2.171,0-4.212-0.845-5.748-2.38s-2.38-3.576-2.38-5.748V19.53c2.311,0.668,5.096,1.056,8.128,1.056   c3.032,0,5.818-0.388,8.129-1.056V20.078z M23.894,3.308C24.082,1.992,25.226,1,26.555,1h9.955c1.33,0,2.474,0.992,2.661,2.308   l0.306,2.138c-2.305,0.7-5.031,1.081-7.944,1.081c-2.914,0-5.64-0.381-7.944-1.081L23.894,3.308z M23.446,6.443   c2.367,0.701,5.136,1.084,8.086,1.084c2.95,0,5.719-0.384,8.087-1.084l0.404,2.829c-2.418,0.787-5.409,1.223-8.491,1.223   c-3.083,0-6.073-0.436-8.49-1.223L23.446,6.443z M22.503,10.149c2.554,0.867,5.748,1.346,9.029,1.346   c3.28,0,6.475-0.479,9.03-1.346c2.873,1.038,4.59,2.531,4.59,4.015c0,2.938-6.237,5.421-13.62,5.421   c-7.382,0-13.619-2.483-13.619-5.421C17.913,12.68,19.63,11.187,22.503,10.149z"/><path d="M22.29,15.901c0.749,0.423,1.755,0.737,2.91,0.909c0.025,0.003,0.05,0.005,0.074,0.005c0.244,0,0.457-0.178,0.494-0.426   c0.041-0.273-0.148-0.528-0.421-0.568c-1.021-0.152-1.932-0.433-2.566-0.791c-0.241-0.137-0.545-0.051-0.681,0.19   C21.964,15.46,22.049,15.765,22.29,15.901z"/><path d="M20.598,14.616c0.056,0,0.112-0.009,0.167-0.029c0.26-0.092,0.396-0.378,0.304-0.639c-0.023-0.066-0.035-0.13-0.035-0.194   c0-0.276-0.224-0.5-0.5-0.5s-0.5,0.224-0.5,0.5c0,0.178,0.031,0.356,0.093,0.529C20.2,14.488,20.393,14.616,20.598,14.616z"/><path d="M17.795,38.089c0.07,0.034,0.145,0.05,0.218,0.05c0.186,0,0.364-0.104,0.45-0.282c0.22-0.453,0.602-0.793,1.077-0.958   c0.261-0.09,0.399-0.375,0.308-0.636c-0.09-0.261-0.375-0.401-0.636-0.308c-0.727,0.252-1.312,0.773-1.648,1.466   C17.443,37.669,17.546,37.969,17.795,38.089z"/></g></svg>